<svg width="52" height="40" viewBox="0 0 52 40" fill="none" xmlns="http://www.w3.org/2000/svg">
<g filter="url(#filter0_d_1_68)">
<rect x="16.75" y="0.75" width="30.5" height="30.5" rx="1.25" fill="#FFC1DA" fill-opacity="0.28" stroke="white" stroke-width="1.5"/>
<path d="M5 15.1579C4.44772 15.1579 4 15.6056 4 16.1579C4 16.7102 4.44772 17.1579 5 17.1579V15.1579ZM34 16.1579L34.6864 16.8852C34.8932 16.69 35.0071 16.416 34.9997 16.1317C34.9922 15.8475 34.8641 15.5798 34.6474 15.3957L34 16.1579ZM26.0636 22.2727C25.662 22.6518 25.6437 23.2847 26.0227 23.6864C26.4018 24.088 27.0347 24.1063 27.4364 23.7273L26.0636 22.2727ZM27.3974 9.23782C26.9764 8.88029 26.3454 8.93169 25.9878 9.35263C25.6303 9.77357 25.6817 10.4046 26.1026 10.7622L27.3974 9.23782ZM5 17.1579H34V15.1579H5V17.1579ZM33.3136 15.4306L26.0636 22.2727L27.4364 23.7273L34.6864 16.8852L33.3136 15.4306ZM34.6474 15.3957L27.3974 9.23782L26.1026 10.7622L33.3526 16.9201L34.6474 15.3957Z" fill="white"/>
</g>
<defs>
<filter id="filter0_d_1_68" x="0" y="0" width="52" height="40" filterUnits="userSpaceOnUse" color-interpolation-filters="sRGB">
<feFlood flood-opacity="0" result="BackgroundImageFix"/>
<feColorMatrix in="SourceAlpha" type="matrix" values="0 0 0 0 0 0 0 0 0 0 0 0 0 0 0 0 0 0 127 0" result="hardAlpha"/>
<feOffset dy="4"/>
<feGaussianBlur stdDeviation="2"/>
<feComposite in2="hardAlpha" operator="out"/>
<feColorMatrix type="matrix" values="0 0 0 0 0 0 0 0 0 0 0 0 0 0 0 0 0 0 0.25 0"/>
<feBlend mode="normal" in2="BackgroundImageFix" result="effect1_dropShadow_1_68"/>
<feBlend mode="normal" in="SourceGraphic" in2="effect1_dropShadow_1_68" result="shape"/>
</filter>
</defs>
</svg>
